# xmcd
#
# Track frame offsets:
#	150
#	18230
#	38559
#	58637
#	75419
#	95747
#	110863
#	127846
#	144255
#	159976
#	175120
#	195243
#	210742
#
# Disc length: 3010 seconds
#
# Revision: 1
# Processed by: cddbd v1.5.2PL0 Copyright (c) Steve Scherf et al.
# Submitted via: audiograbber 1.83.01
#
DISCID=9d0bc00d
DTITLE=Hank Grant - A Bible and A Bus Ticket Home
DYEAR=2007
DGENRE=Country
TTITLE0=The Picture
TTITLE1=Stuck Again
TTITLE2=A Bible And A Bus Ticket Home
TTITLE3=A Real Goodbye Buy
TTITLE4=No Scars
TTITLE5=Crazy Love
TTITLE6=As Long As There's A Night
TTITLE7=Hammers In My Head
TTITLE8=Broken This Time
TTITLE9=Sounds Of Freedom
TTITLE10=What I Wouldn't Give
TTITLE11=Wings Of Love
TTITLE12=I'm Only Half The Answer
EXTD=Excutive Producer Bill Hail, BMI\n\nRecorded At Studio 23\n\nMark Dreyer P
EXTD=roductions
EXTT0=
EXTT1=
EXTT2=
EXTT3=
EXTT4=
EXTT5=
EXTT6=
EXTT7=
EXTT8=
EXTT9=
EXTT10=
EXTT11=
EXTT12=
PLAYORDER=
